<svg width="20" height="20" viewBox="0 0 20 20" fill="none" xmlns="http://www.w3.org/2000/svg">
<g clip-path="url(#clip0)">
<path d="M10 0.41687C4.475 0.41687 0 4.81687 0 10.2435C0 14.586 2.865 18.2685 6.8375 19.5669C7.3375 19.6594 7.52083 19.3552 7.52083 19.0944C7.52083 18.861 7.5125 18.2427 7.50833 17.4235C4.72667 18.016 4.14 16.1052 4.14 16.1052C3.685 14.971 3.0275 14.6677 3.0275 14.6677C2.12167 14.0585 3.0975 14.071 3.0975 14.071C4.10167 14.1394 4.62917 15.0835 4.62917 15.0835C5.52083 16.586 6.97 16.1519 7.54167 15.901C7.63167 15.2652 7.88917 14.8327 8.175 14.5869C5.95417 14.341 3.62 13.496 3.62 9.73104C3.62 8.65854 4.0075 7.78187 4.64917 7.09437C4.53667 6.84604 4.19917 5.84687 4.73667 4.49354C4.73667 4.49354 5.57417 4.2302 7.48667 5.50104C8.28667 5.2827 9.13667 5.17437 9.98667 5.16937C10.8367 5.17437 11.6867 5.2827 12.4867 5.50104C14.3867 4.2302 15.2242 4.49354 15.2242 4.49354C15.7617 5.84687 15.4242 6.84604 15.3242 7.09437C15.9617 7.78187 16.3492 8.65854 16.3492 9.73104C16.3492 13.506 14.0117 14.3369 11.7867 14.5785C12.1367 14.8735 12.4617 15.476 12.4617 16.3969C12.4617 17.7119 12.4492 18.7685 12.4492 19.0877C12.4492 19.3452 12.6242 19.6527 13.1367 19.5544C17.1375 18.2644 20 14.5794 20 10.2435C20 4.81687 15.5225 0.41687 10 0.41687V0.41687Z" fill="white"/>
</g>
<defs>
<clipPath id="clip0">
<rect width="20" height="20" fill="white"/>
</clipPath>
</defs>
</svg>
